<svg width="36" height="36" viewBox="0 0 36 36" fill="none" xmlns="http://www.w3.org/2000/svg">
<circle cx="18" cy="18" r="18" fill="white"/>
<rect x="10" y="10" width="15.9995" height="15.9998" fill="white" fill-opacity="0.01"/>
<path d="M13.5463 19.6682L12.9894 21.7473L10.9539 21.7904C10.3455 20.6621 10.0005 19.3711 10.0005 17.9993C10.0005 16.6727 10.3231 15.4217 10.895 14.3202H10.8954L12.7076 14.6524L13.5014 16.4538C13.3353 16.9382 13.2447 17.4582 13.2447 17.9993C13.2448 18.5865 13.3512 19.1491 13.5463 19.6682Z" fill="#FBBB00"/>
<path d="M25.8604 16.5051C25.9523 16.9891 26.0002 17.4888 26.0002 17.9996C26.0002 18.5723 25.9399 19.131 25.8252 19.6699C25.4358 21.5037 24.4182 23.105 23.0086 24.2382L23.0082 24.2378L20.7256 24.1213L20.4026 22.1046C21.3379 21.5561 22.0689 20.6976 22.454 19.6699H18.1763V16.5051H22.5164H25.8604Z" fill="#518EF8"/>
<path d="M23.0077 24.2383L23.0082 24.2388C21.6373 25.3407 19.8957 26.0001 18 26.0001C14.9535 26.0001 12.3048 24.2972 10.9536 21.7913L13.5461 19.6692C14.2216 21.4722 15.9609 22.7557 18 22.7557C18.8764 22.7557 19.6975 22.5188 20.4021 22.1052L23.0077 24.2383Z" fill="#28B446"/>
<path d="M23.1068 11.8417L20.5152 13.9634C19.786 13.5076 18.924 13.2443 18.0005 13.2443C15.9153 13.2443 14.1435 14.5867 13.5018 16.4544L10.8957 14.3208H10.8953C12.2267 11.7538 14.9088 10 18.0005 10C19.9416 10 21.7213 10.6914 23.1068 11.8417Z" fill="#F14336"/>
</svg>
