<svg width="36" height="36" viewBox="0 0 36 36" fill="none" xmlns="http://www.w3.org/2000/svg">
<g clip-path="url(#clip0)">
<g filter="url(#filter0_d)">
<rect x="18" y="-1.79968" width="28" height="28" rx="6" transform="rotate(45 18 -1.79968)" fill="#F2994A"/>
<rect x="18" y="-1.09258" width="27" height="27" rx="5.5" transform="rotate(45 18 -1.09258)" stroke="#828282"/>
</g>
<path d="M22.4349 19.8H13.5069L11.6589 24H9.18694L16.7949 7.2H19.1709L26.8029 24H24.2829L22.4349 19.8ZM21.5949 17.88L17.9709 9.648L14.3469 17.88H21.5949Z" fill="black"/>
<path d="M22.4349 19.8L23.3503 19.3973L23.0875 18.8H22.4349V19.8ZM13.5069 19.8V18.8H12.8544L12.5916 19.3973L13.5069 19.8ZM11.6589 24V25H12.3115L12.5743 24.4027L11.6589 24ZM9.18694 24L8.27599 23.5875L7.63632 25H9.18694V24ZM16.7949 7.2V6.2H16.15L15.884 6.78747L16.7949 7.2ZM19.1709 7.2L20.0814 6.78639L19.815 6.2H19.1709V7.2ZM26.8029 24V25H28.3556L27.7134 23.5864L26.8029 24ZM24.2829 24L23.3676 24.4027L23.6304 25H24.2829V24ZM21.5949 17.88V18.88H23.1278L22.5102 17.4771L21.5949 17.88ZM17.9709 9.648L18.8862 9.24508L17.9709 7.1661L17.0557 9.24508L17.9709 9.648ZM14.3469 17.88L13.4317 17.4771L12.8141 18.88H14.3469V17.88ZM22.4349 18.8H13.5069V20.8H22.4349V18.8ZM12.5916 19.3973L10.7436 23.5973L12.5743 24.4027L14.4223 20.2027L12.5916 19.3973ZM11.6589 23H9.18694V25H11.6589V23ZM10.0979 24.4125L17.7059 7.61253L15.884 6.78747L8.27599 23.5875L10.0979 24.4125ZM16.7949 8.2H19.1709V6.2H16.7949V8.2ZM18.2605 7.61361L25.8925 24.4136L27.7134 23.5864L20.0814 6.78639L18.2605 7.61361ZM26.8029 23H24.2829V25H26.8029V23ZM25.1983 23.5973L23.3503 19.3973L21.5196 20.2027L23.3676 24.4027L25.1983 23.5973ZM22.5102 17.4771L18.8862 9.24508L17.0557 10.0509L20.6797 18.2829L22.5102 17.4771ZM17.0557 9.24508L13.4317 17.4771L15.2622 18.2829L18.8862 10.0509L17.0557 9.24508ZM14.3469 18.88H21.5949V16.88H14.3469V18.88Z" fill="#949494"/>
</g>
<defs>
<filter id="filter0_d" x="-5.79901" y="-1.79968" width="47.598" height="47.598" filterUnits="userSpaceOnUse" color-interpolation-filters="sRGB">
<feFlood flood-opacity="0" result="BackgroundImageFix"/>
<feColorMatrix in="SourceAlpha" type="matrix" values="0 0 0 0 0 0 0 0 0 0 0 0 0 0 0 0 0 0 127 0"/>
<feOffset dy="4"/>
<feGaussianBlur stdDeviation="2"/>
<feColorMatrix type="matrix" values="0 0 0 0 0 0 0 0 0 0 0 0 0 0 0 0 0 0 0.25 0"/>
<feBlend mode="normal" in2="BackgroundImageFix" result="effect1_dropShadow"/>
<feBlend mode="normal" in="SourceGraphic" in2="effect1_dropShadow" result="shape"/>
</filter>
<clipPath id="clip0">
<rect width="36" height="36" fill="white"/>
</clipPath>
</defs>
</svg>
